<svg id="Layer_2" viewBox="0 0 512 512" xmlns="http://www.w3.org/2000/svg" data-name="Layer 2"><g id="Icon"><g id="Ch"><path id="Background" d="m412 512h-312c-55.23 0-100-44.77-100-100v-312c0-55.23 44.77-100 100-100h312c55.23 0 100 44.77 100 100v312c0 55.23-44.77 100-100 100z" fill="#00005b"/><path d="m163.7 383.4c-22.3 0-42.3-4.5-59.8-13.5s-31.3-22.1-41.2-39.2c-10-17.1-15-37.9-15-62.4v-10.8c0-22.6 4.6-42.5 13.8-59.9 9.2-17.3 22.3-30.9 39.3-40.8 17-9.8 37.2-14.7 60.7-14.7 16.3 0 31.9 2.2 46.6 6.5 14.8 4.3 28.5 11.8 41.2 22.3v60.4h-41.1l-5.6-34.6c-3.7-2.5-7.5-4.6-11.5-6.4s-8.3-3.2-12.9-4.2-9.5-1.5-14.7-1.5c-11.9 0-22.3 2.8-31.3 8.5-8.9 5.7-15.8 13.9-20.7 24.7s-7.3 23.9-7.3 39.2v11.1c0 14.4 2.5 27 7.6 37.9 5 10.9 12.1 19.4 21.2 25.5s19.6 9.2 31.5 9.2c6.3 0 12.8-.7 19.3-2 6.6-1.3 12.9-3.1 19-5.4l5.6-33.2h41.2v59.1c-9.3 6.4-21.3 12.1-35.8 16.8-14.5 5-31.2 7.4-50.1 7.4zm101.6-3.4v-33l20.5-5.2v-174.8l-24.5-5.2v-33.2h80.7v98.6c5.2-7.8 11.6-13.9 19.3-18.3 7.7-4.3 16.7-6.5 26.9-6.5 16.8 0 30.2 6 40.4 18s15.3 30.5 15.3 55.5v65.9l20.3 5.2v33h-93.5v-33l16.6-5.2v-66.2c0-11.4-1.9-19.2-5.7-23.4s-9.3-6.4-16.5-6.4c-4.9 0-9.4.9-13.4 2.6s-7.3 4.5-9.8 8.2v85.2l16.6 5.2v33z" fill="#99f"/></g></g></svg>